<mxfile host="app.diagrams.net" modified="2020-08-31T07:37:08.717Z" agent="5.0 (Windows)" etag="NY2URDYoWsYqRDbLBuq6" version="13.6.5" type="github">
  <diagram id="vVYcCNFhCBqixPrSpccl" name="Page-1">
    <mxGraphModel dx="1038" dy="547" grid="1" gridSize="10" guides="1" tooltips="1" connect="1" arrows="1" fold="1" page="1" pageScale="1" pageWidth="1169" pageHeight="827" math="0" shadow="0">
      <root>
        <mxCell id="0" />
        <mxCell id="1" parent="0" />
        <mxCell id="YHDUnjzckUYfYjCSyQm6-1" value="Product Development - Instructive Training Workshops" style="swimlane;html=1;childLayout=stackLayout;resizeParent=1;resizeParentMax=0;horizontal=1;startSize=20;horizontalStack=0;" vertex="1" parent="1">
          <mxGeometry x="30" y="10" width="930" height="500" as="geometry" />
        </mxCell>
        <mxCell id="YHDUnjzckUYfYjCSyQm6-2" value="HOD" style="swimlane;html=1;startSize=20;horizontal=0;" vertex="1" parent="YHDUnjzckUYfYjCSyQm6-1">
          <mxGeometry y="20" width="930" height="120" as="geometry" />
        </mxCell>
        <mxCell id="YHDUnjzckUYfYjCSyQm6-6" value="Start" style="rounded=1;whiteSpace=wrap;html=1;" vertex="1" parent="YHDUnjzckUYfYjCSyQm6-2">
          <mxGeometry x="70" y="10" width="100" height="30" as="geometry" />
        </mxCell>
        <mxCell id="YHDUnjzckUYfYjCSyQm6-7" value="HOD initiates" style="rounded=0;whiteSpace=wrap;html=1;" vertex="1" parent="YHDUnjzckUYfYjCSyQm6-2">
          <mxGeometry x="60" y="70" width="120" height="40" as="geometry" />
        </mxCell>
        <mxCell id="YHDUnjzckUYfYjCSyQm6-3" value="CEO" style="swimlane;html=1;startSize=20;horizontal=0;" vertex="1" parent="YHDUnjzckUYfYjCSyQm6-1">
          <mxGeometry y="140" width="930" height="120" as="geometry" />
        </mxCell>
        <mxCell id="YHDUnjzckUYfYjCSyQm6-4" value="Procurement" style="swimlane;html=1;startSize=20;horizontal=0;" vertex="1" parent="YHDUnjzckUYfYjCSyQm6-1">
          <mxGeometry y="260" width="930" height="120" as="geometry" />
        </mxCell>
        <mxCell id="YHDUnjzckUYfYjCSyQm6-5" value="Product Development" style="swimlane;html=1;startSize=20;horizontal=0;" vertex="1" parent="YHDUnjzckUYfYjCSyQm6-1">
          <mxGeometry y="380" width="930" height="120" as="geometry" />
        </mxCell>
      </root>
    </mxGraphModel>
  </diagram>
</mxfile>
